<?xml version="1.0" encoding="UTF-8"?>
<svg id="Layer_1" data-name="Layer 1" xmlns="http://www.w3.org/2000/svg" viewBox="0 0 48 48">
  <defs>
    <style>
      .cls-1 {
        stroke-width: 0px;
      }
    </style>
  </defs>
  <path class="cls-1" d="m24.47,0c1.24.38,2.19,1.23,3.17,2.02.96.77,2.01,1.15,3.25,1.08.83-.04,1.66-.04,2.48-.02,1.37.04,2.25.68,2.72,1.98.29.81.53,1.63.76,2.46.3,1.08.91,1.93,1.85,2.55.7.46,1.4.95,2.07,1.46,1.14.87,1.48,1.89,1.08,3.26-.24.82-.53,1.63-.82,2.44-.39,1.06-.38,2.1,0,3.16.34.97.66,1.95.92,2.94.26.98-.09,1.84-.84,2.48-.65.55-1.35,1.07-2.07,1.52-1.19.74-1.94,1.76-2.28,3.12-.21.83-.54,1.63-.78,2.45-.05.18,0,.43.07.62,1.18,3.04,2.37,6.07,3.56,9.11.41,1.04-.03,1.64-1.13,1.53-1.48-.15-2.95-.33-4.42-.53-.49-.07-.83.02-1.16.44-.94,1.17-1.93,2.3-2.91,3.43-.66.77-1.47.65-1.84-.3-1.17-2.98-2.34-5.95-3.48-8.94-.2-.53-.45-.77-1.06-.59-.29.74-.6,1.52-.9,2.3-.94,2.4-1.87,4.79-2.81,7.19-.4,1.01-1.17,1.14-1.88.32-.98-1.14-1.96-2.27-2.91-3.43-.31-.38-.61-.47-1.08-.41-1.5.21-3,.38-4.51.54-1.03.11-1.48-.52-1.11-1.49,1.19-3.05,2.38-6.1,3.58-9.15.12-.3.1-.54,0-.84-.31-.83-.57-1.68-.81-2.54-.31-1.12-.94-1.98-1.91-2.62-.69-.45-1.37-.93-2.03-1.43-1.11-.84-1.48-1.94-1.06-3.27.25-.8.51-1.6.81-2.39.4-1.07.39-2.12.01-3.2-.33-.94-.65-1.89-.9-2.85-.31-1.17.18-2.09,1.08-2.79.69-.54,1.41-1.04,2.14-1.52.95-.62,1.53-1.47,1.86-2.55.29-.98.61-1.97.99-2.92.43-1.06,1.35-1.48,2.44-1.52.9-.03,1.81-.02,2.72.01,1.1.04,2.06-.28,2.91-.97.24-.2.5-.38.74-.57.79-.64,1.6-1.24,2.58-1.56h.94Zm-8.09,4.97c-.52,0-1.11,0-1.71,0-.45,0-.78.21-.93.65-.21.62-.45,1.24-.59,1.87-.45,1.97-1.54,3.45-3.26,4.49-.56.34-1.08.75-1.6,1.14-.34.26-.48.6-.34,1.03.22.63.39,1.29.64,1.9.76,1.86.75,3.7-.02,5.56-.25.6-.42,1.24-.63,1.86-.15.43,0,.78.33,1.03.54.4,1.07.82,1.64,1.17,1.7,1.03,2.75,2.49,3.21,4.42.16.66.41,1.31.63,1.96.13.38.41.59.81.59.73,0,1.47.03,2.2-.01,1.92-.12,3.6.44,5.05,1.71.38.33.79.62,1.19.92.81.6,1.17.6,1.97.01.38-.28.76-.55,1.11-.86,1.52-1.35,3.28-1.94,5.3-1.78.67.05,1.34.02,2.01.02.42,0,.71-.22.85-.61.22-.65.46-1.3.62-1.96.47-1.9,1.51-3.36,3.19-4.38.57-.35,1.11-.76,1.64-1.16.36-.27.51-.62.35-1.07-.22-.63-.4-1.28-.65-1.9-.74-1.83-.75-3.64,0-5.47.25-.62.43-1.27.65-1.9.15-.45.02-.81-.34-1.07-.58-.43-1.15-.86-1.76-1.24-1.54-.97-2.55-2.31-3-4.08-.18-.71-.42-1.4-.65-2.1-.16-.49-.51-.73-1.02-.72-.7,0-1.41,0-2.11.03-1.45.06-2.84-.16-4.05-1.02-.55-.39-1.07-.81-1.61-1.21-1.46-1.12-1.54-1.11-3.02,0-.76.57-1.52,1.16-2.34,1.63-1.14.66-2.42.65-3.77.57Zm2.22,40.26c1.09-2.78,2.14-5.47,3.18-8.18.04-.12-.04-.36-.15-.45-.41-.36-.88-.65-1.29-1.01-.96-.84-2.09-1.12-3.34-1.08-1.1.03-2.2,0-3.38,0-.96,2.45-1.95,4.99-2.97,7.61,1.35-.16,2.6-.29,3.85-.47.63-.09,1.11.02,1.52.55.81,1.01,1.67,1.98,2.57,3.03Zm10.81,0c.78-.91,1.55-1.73,2.22-2.62.59-.78,1.23-1.21,2.23-.9.18.05.37.05.56.07.96.11,1.91.22,2.94.34-1.02-2.62-2.02-5.16-3.02-7.71-.24.04-.42.1-.6.11-1.01,0-2.03-.04-3.04.02-.66.04-1.38.09-1.94.39-.89.47-1.66,1.15-2.47,1.76-.08.06-.09.28-.05.4,1.04,2.69,2.09,5.37,3.18,8.15Z"/>
  <path class="cls-1" d="m36.34,18.81c0,6.8-5.56,12.34-12.35,12.33-6.81,0-12.39-5.6-12.33-12.35.06-6.85,5.59-12.35,12.37-12.32,6.8.04,12.32,5.57,12.31,12.34Zm-12.35-10.45c-5.75,0-10.42,4.68-10.43,10.44-.01,5.77,4.69,10.47,10.46,10.45,5.76-.02,10.43-4.71,10.41-10.45-.02-5.77-4.7-10.44-10.44-10.44Z"/>
  <path class="cls-1" d="m19.21,24.38c.19-1.1.37-2.27.59-3.44.05-.29-.02-.46-.22-.65-.77-.73-1.52-1.48-2.29-2.22-.35-.34-.58-.71-.4-1.2.17-.47.59-.59,1.05-.66,1.08-.15,2.16-.3,3.24-.48.16-.03.34-.2.42-.35.49-.96.97-1.92,1.44-2.89.2-.42.47-.76.97-.76.5,0,.77.33.97.76.47.97.94,1.94,1.44,2.89.09.17.32.33.51.36,1.08.18,2.16.33,3.24.48.42.06.79.21.95.65.16.45-.01.82-.34,1.13-.8.77-1.6,1.54-2.38,2.33-.12.13-.2.38-.18.56.16,1.06.35,2.12.53,3.19.08.45.08.88-.33,1.19-.41.31-.81.21-1.23-.02-.94-.5-1.89-.98-2.81-1.49-.28-.16-.5-.14-.77,0-.99.54-1.98,1.06-2.98,1.57-.72.36-1.43-.1-1.41-.97Zm2.2-1.58c.51-.27.97-.44,1.35-.72.85-.61,1.64-.59,2.49,0,.38.27.83.44,1.33.7-.08-.49-.16-.87-.21-1.25-.26-1.75-.5-1.42.89-2.75.29-.28.58-.57.93-.91-.8-.12-1.47-.24-2.15-.31-.52-.05-.86-.3-1.07-.77-.29-.63-.61-1.25-.96-1.96-.36.72-.69,1.35-.99,2-.2.44-.52.67-1,.73-.7.08-1.4.2-2.09.31.52.55,1.01,1.09,1.52,1.61.31.31.44.65.35,1.1-.14.71-.24,1.43-.37,2.23Z"/>
</svg>